<svg width="800" height="800" viewBox="0 0 48 48" xmlns="http://www.w3.org/2000/svg"><g data-name="Layer 2"><path fill="none" data-name="invisible box" d="M0 0h48v48H0z"/><path d="M35.8 11a3.2 3.2 0 0 0-2.2-1H32V8a2.9 2.9 0 0 0-3-3H5a2.9 2.9 0 0 0-3 3v27a2.9 2.9 0 0 0 3 3h2.3a7 7 0 0 0 13.4 0h6.6a7 7 0 0 0 13.4 0H43a2.9 2.9 0 0 0 3-3V22.2Zm-2.7 3 7.3 8H32v-8ZM6 9h22v23.4a7.7 7.7 0 0 0-.7 1.6h-6.6a7 7 0 0 0-13.4 0H6Zm8 30a3 3 0 1 1 3-3 2.9 2.9 0 0 1-3 3Zm20 0a3 3 0 1 1 3-3 2.9 2.9 0 0 1-3 3Zm6.7-5a7 7 0 0 0-6.7-5 6.4 6.4 0 0 0-2 .3V26h10v8Z" data-name="Health Icons"/></g></svg>