<svg width="800" height="800" viewBox="0 0 1069 1069" style="fill-rule:evenodd;clip-rule:evenodd;stroke-linejoin:round;stroke-miterlimit:2" xml:space="preserve" xmlns="http://www.w3.org/2000/svg"><path style="fill:none" d="M.031.592h1066.67v1066.67H.031z"/><path d="M252.329 815.175h104.167l1.343-.162c5.981-.865 29.907-5.925 29.907-31.508v-30.831c0-46.023-37.31-83.332-83.333-83.332h-.084c-45.977 0-83.25 37.272-83.25 83.249v30.912l31.25 31.672Zm218.535 0h104.167l1.342-.162c5.982-.865 29.908-5.925 29.908-31.508v-30.831c-.001-46.023-37.31-83.332-83.334-83.332 17.259 0 31.25 13.991 31.25 31.25s-13.991 31.25-31.25 31.25c17.259 0 31.25-13.991 31.25-31.25s-13.991-31.25-31.25-31.25c-46.023 0-83.333 37.309-83.333 83.332v30.831l31.25 31.67Zm-145.618-62.5v-.002c-.001-11.505-9.328-20.831-20.833-20.831h-.086c-11.458.001-20.747 9.289-20.748 20.751v.082h41.667Zm218.535 0v-.002c-.001-11.505-9.328-20.831-20.834-20.831-11.505 0-20.832 9.326-20.833 20.833h41.667Zm364.583-208.333h62.5c17.247 0 31.25-14.003 31.25-31.25 0-17.248-14.003-31.25-31.25-31.25h-62.5c-17.247 0-31.25 14.002-31.25 31.25 0 17.247 14.003 31.25 31.25 31.25Zm-812.5 0h62.5c17.247 0 31.25-14.003 31.25-31.25 0-17.248-14.003-31.25-31.25-31.25h-62.5c-17.247 0-31.25 14.002-31.25 31.25 0 17.247 14.003 31.25 31.25 31.25Zm812.5-104.167h62.5c17.247 0 31.25-14.003 31.25-31.25s-14.003-31.25-31.25-31.25h-62.5c-17.247 0-31.25 14.003-31.25 31.25s14.003 31.25 31.25 31.25Zm-812.5 0h62.5c17.247 0 31.25-14.003 31.25-31.25s-14.003-31.25-31.25-31.25h-62.5c-17.247 0-31.25 14.003-31.25 31.25s14.003 31.25 31.25 31.25Z" style="fill-opacity:.5"/><path d="M887.532 252.675H179.197c-63.283 0-114.583 51.301-114.583 114.583v333.334c0 63.282 51.3 114.582 114.583 114.583h708.334c63.283-.001 114.583-51.301 114.583-114.583V367.258c0-63.282-51.3-114.583-114.582-114.583Zm-175.947 62.5c-.6 28.918-11.172 56.436-29.187 76.943-19.911 22.664-47.086 35.033-75.243 35.033H460.738c-28.157 0-55.332-12.369-75.243-35.033-18.014-20.507-28.587-48.025-29.187-76.943H179.195c-28.763.001-52.08 23.318-52.081 52.083v218.75h739.583c17.248 0 31.25 14.003 31.25 31.25 0 17.248-14.002 31.25-31.25 31.25H127.114v52.086c.001 28.763 23.318 52.08 52.083 52.081h708.336c28.763-.001 52.08-23.318 52.081-52.083V367.256c-.001-28.763-23.318-52.08-52.083-52.081H711.585Zm-62.527 0c-.54 13.395-5.252 26.174-13.615 35.694-7.548 8.592-17.612 13.782-28.287 13.782H460.739c-10.677 0-20.741-5.19-28.289-13.782-8.363-9.52-13.075-22.299-13.615-35.694h230.223Z"/></svg>