<svg width="800" height="800" viewBox="0 0 35 35" data-name="Layer 2" xmlns="http://www.w3.org/2000/svg"><path d="M17.5 16.7a2 2 0 1 1 2-2 2 2 0 0 1-2 2Zm0-2Z"/><path d="M28.559 34.75H6.441a4.2 4.2 0 0 1-4.191-4.191V4.442A4.2 4.2 0 0 1 6.441.25h22.118a4.2 4.2 0 0 1 4.191 4.192v26.117a4.2 4.2 0 0 1-4.191 4.191Zm-22.118-32A1.694 1.694 0 0 0 4.75 4.442v26.117a1.693 1.693 0 0 0 1.691 1.691h22.118a1.693 1.693 0 0 0 1.691-1.691V4.442a1.694 1.694 0 0 0-1.691-1.692Z"/><path d="M17.46 23.445a8.75 8.75 0 1 1 8.75-8.75 8.759 8.759 0 0 1-8.75 8.75Zm0-15a6.25 6.25 0 1 0 6.25 6.25 6.257 6.257 0 0 0-6.25-6.25ZM8.2 7.45a1.251 1.251 0 0 0 0-2.5 1.251 1.251 0 0 0 0 2.5Zm18.6 0a1.251 1.251 0 0 0 0-2.5 1.251 1.251 0 0 0 0 2.5ZM8.2 29.67a1.251 1.251 0 0 0 0-2.5 1.251 1.251 0 0 0 0 2.5Zm18.6 0a1.251 1.251 0 0 0 0-2.5 1.251 1.251 0 0 0 0 2.5Z"/><path d="M10.46 24.31a1.251 1.251 0 0 1-.89-2.128l4.5-4.56a1.25 1.25 0 0 1 1.78 1.756l-4.5 4.56a1.246 1.246 0 0 1-.89.372Z"/></svg>